<svg xmlns="http://www.w3.org/2000/svg" viewBox="0 0 780 780" fill="none">
  <g opacity="0.3">
    <!-- Floral pattern inspired by western motifs -->
    <path d="M390 150c-20 0-35 15-35 35 0 15 10 28 24 33-14 5-24 18-24 33 0 20 15 35 35 35s35-15 35-35c0-15-10-28-24-33 14-5 24-18 24-33 0-20-15-35-35-35z" fill="currentColor"/>
    <circle cx="390" cy="390" r="15" fill="currentColor"/>
    <path d="M390 550c-20 0-35 15-35 35 0 15 10 28 24 33-14 5-24 18-24 33 0 20 15 35 35 35s35-15 35-35c0-15-10-28-24-33 14-5 24-18 24-33 0-20-15-35-35-35z" fill="currentColor"/>
    <path d="M150 390c0-20 15-35 35-35 15 0 28 10 33 24 5-14 18-24 33-24 20 0 35 15 35 35s-15 35-35 35c-15 0-28-10-33-24-5 14-18 24-33 24-20 0-35-15-35-35z" fill="currentColor"/>
    <path d="M550 390c0-20 15-35 35-35 15 0 28 10 33 24 5-14 18-24 33-24 20 0 35 15 35 35s-15 35-35 35c-15 0-28-10-33-24-5 14-18 24-33 24-20 0-35-15-35-35z" fill="currentColor"/>
    <!-- Diagonal flourishes -->
    <path d="M250 250c10-10 10-26 0-36s-26-10-36 0c-5 5-7 11-7 18 0 7 2 13 7 18s11 7 18 7c7 0 13-2 18-7z" fill="currentColor"/>
    <path d="M530 250c-10-10-10-26 0-36s26-10 36 0c5 5 7 11 7 18 0 7-2 13-7 18s-11 7-18 7c-7 0-13-2-18-7z" fill="currentColor"/>
    <path d="M250 530c10 10 10 26 0 36s-26 10-36 0c-5-5-7-11-7-18 0-7 2-13 7-18s11-7 18-7c7 0 13 2 18 7z" fill="currentColor"/>
    <path d="M530 530c-10 10-10 26 0 36s26 10 36 0c5-5 7-11 7-18 0-7-2-13-7-18s-11-7-18-7c-7 0-13 2-18 7z" fill="currentColor"/>
  </g>
</svg>
